<svg width="202" height="201" viewBox="0 0 202 201" fill="none" xmlns="http://www.w3.org/2000/svg">
<path d="M68.0006 115.54C68.0006 115.54 67.3915 105.772 77.7464 102.108C88.1013 98.4452 91.1469 99.6663 99.6745 98.4452C108.202 97.2242 116.121 91.119 118.557 78.9085M118.557 78.9085C122.821 83.1822 128.303 98.4452 116.73 109.435M118.557 78.9085C129.365 80.826 142.313 102.108 124.039 111.877M118.557 78.9085C113.684 84.4032 105.156 87.4559 99.6745 88.0664C94.1925 88.6769 71.6552 87.4559 67.3915 88.0664C63.1277 88.6769 62.5195 89.8979 59.4732 91.7295M118.557 78.9085C113.684 80.7401 109.421 80.7401 96.6292 80.7401M118.557 78.9085C119.135 83.5246 122.141 89.3057 116.73 97.2242C113.684 101.498 106.984 103.94 103.938 110.045M61.3003 113.098C47.2917 103.329 57.6465 93.561 59.4732 91.7295M59.4732 91.7295C59.4731 88.6769 54.6001 75.8559 68.6099 74.0244M96.6292 80.7401C90.138 80.7401 85.2738 78.0868 82.0195 76.3117L82.0104 76.3068M96.6292 80.7401C92.9745 69.1402 99.6745 64.256 97.8474 55.7087C96.0203 47.1614 83.2287 44.7194 83.2287 44.7194M68.6099 74.0244C64.9553 61.8139 82.0105 61.8139 85.6651 55.7087C89.3198 49.6035 83.2287 44.7194 83.2287 44.7194M68.6099 74.0244C75.5037 73.1231 78.8578 74.5871 82.0104 76.3068M83.2287 44.7194C83.2287 44.7194 91.7563 46.5509 91.7563 55.7087C91.7563 64.8666 79.574 67.3086 82.0104 76.3068M83.2287 44.7194C83.2287 44.7194 99.0656 44.7194 104.548 55.7087" stroke="#593B34" stroke-width="1.3" stroke-linecap="round"/>
<path d="M109.422 73.4141C109.422 73.4141 106.984 60.0792 110.03 54.2308C113.075 48.3825 120.994 49.6035 122.212 54.2308C123.43 58.8582 123.431 58.7616 123.431 58.7616C123.431 58.7616 127.227 58.2216 129.522 59.372C133.177 61.2036 135.004 66.0878 131.959 70.3615C128.913 74.6352 109.422 73.4141 109.422 73.4141Z" fill="#593B34" stroke="#593B34"/>
<g filter="url(#filter0_f_531_350)">
<path d="M119.655 53.485C119.775 53.5522 119.927 53.5089 119.995 53.3882C120.062 53.2676 120.018 53.1154 119.898 53.0482L119.655 53.485ZM111.025 71.6939C111.087 71.8174 111.237 71.8676 111.36 71.806C111.484 71.7443 111.534 71.5942 111.472 71.4707L111.025 71.6939ZM119.898 53.0482C117.11 51.4959 114.915 51.4634 113.259 52.4813C111.625 53.4862 110.593 55.4719 110.016 57.785C109.437 60.1067 109.304 62.8058 109.505 65.3063C109.706 67.8036 110.244 70.1281 111.025 71.6939L111.472 71.4707C110.731 69.9838 110.202 67.7294 110.004 65.2662C109.805 62.8062 109.938 60.1633 110.501 57.906C111.067 55.6402 112.053 53.8101 113.521 52.9072C114.968 52.0172 116.96 51.9847 119.655 53.485L119.898 53.0482Z" fill="white" fill-opacity="0.9"/>
</g>
<path d="M10.7897 107.201C10.7897 107.201 5.13394 108.188 2.67626 106.833C0.218583 105.478 0.779064 102.043 2.74373 101.539C4.7084 101.035 4.66752 101.034 4.66752 101.034C4.66752 101.034 4.46005 99.3814 4.95955 98.39C5.75476 96.8118 7.83146 96.0441 9.62288 97.3908C11.4143 98.7374 10.7897 107.201 10.7897 107.201Z" fill="#593B34" stroke="#593B34"/>
<g filter="url(#filter1_f_531_350)">
<path d="M2.6728 102.635C2.71499 102.563 2.6914 102.471 2.62011 102.429C2.54881 102.387 2.45682 102.41 2.41463 102.482L2.6728 102.635ZM9.95154 106.121C10.0266 106.086 10.059 105.997 10.0239 105.922C9.98877 105.846 9.89948 105.814 9.82444 105.849L9.95154 106.121ZM2.41463 102.482C1.76872 103.573 1.73678 104.454 2.15341 105.129C2.56111 105.79 3.37234 106.208 4.30591 106.446C5.24514 106.686 6.33807 106.752 7.35113 106.686C8.36226 106.62 9.30881 106.421 9.95154 106.121L9.82444 105.849C9.22847 106.128 8.32302 106.322 7.33159 106.387C6.34208 106.451 5.28187 106.386 4.38009 106.156C3.47266 105.924 2.75503 105.533 2.40873 104.972C2.07136 104.425 2.06028 103.67 2.6728 102.635L2.41463 102.482Z" fill="white" fill-opacity="0.9"/>
</g>
<path d="M190.227 106.43C190.227 106.43 189.367 100.74 190.773 98.3074C192.179 95.8744 195.592 96.5115 196.052 98.4913C196.512 100.471 196.514 100.43 196.514 100.43C196.514 100.43 198.166 100.259 199.144 100.781C200.701 101.612 201.421 103.71 200.038 105.476C198.656 107.241 190.227 106.43 190.227 106.43Z" fill="#593B34" stroke="#593B34"/>
<g filter="url(#filter2_f_531_350)">
<path d="M194.96 98.3958C195.031 98.4397 195.123 98.4183 195.167 98.348C195.211 98.2778 195.19 98.1852 195.119 98.1414L194.96 98.3958ZM191.323 105.613C191.356 105.689 191.445 105.723 191.521 105.69C191.597 105.657 191.631 105.568 191.598 105.492L191.323 105.613ZM195.119 98.1414C194.045 97.4701 193.166 97.4186 192.483 97.8214C191.815 98.2155 191.381 99.0191 191.123 99.9492C190.863 100.885 190.773 101.979 190.816 102.995C190.86 104.01 191.037 104.963 191.323 105.613L191.598 105.492C191.333 104.889 191.159 103.977 191.116 102.982C191.074 101.989 191.162 100.928 191.412 100.03C191.663 99.1251 192.068 98.4145 192.636 98.0798C193.188 97.754 193.942 97.7593 194.96 98.3958L195.119 98.1414Z" fill="white" fill-opacity="0.9"/>
</g>
<path d="M139.876 124.087C139.876 124.087 147.186 113.709 150.231 100.888C153.277 88.0663 139.876 86.8453 138.658 96.6137C137.44 106.382 137.44 123.477 137.44 123.477L138.658 123.782M139.876 124.087C139.876 124.087 146.577 109.435 153.277 100.888C159.977 92.3403 169.723 100.277 163.023 107.603C156.322 114.93 142.313 125.919 142.313 125.919L141.095 125.003M139.876 124.087L138.658 123.782M139.876 124.087L141.095 125.003M138.658 123.782C138.658 123.782 141.095 108.214 144.14 96.6137C147.186 85.0138 166.678 88.6769 158.759 102.719C150.841 116.761 141.095 125.003 141.095 125.003" stroke="#593B34"/>
<path d="M58.2556 122.866C55.8193 113.708 67.7986 111.877 69.2199 120.424C70.6411 128.971 76.5296 154.003 76.5296 154.003L72.2655 154.003C72.2655 154.003 60.692 132.024 58.2556 122.866Z" fill="#593B34"/>
<path d="M72.2646 122.866C71.0467 114.319 85.0562 113.708 85.056 121.645C85.0558 129.582 86.2741 155.224 86.2741 155.224L80.7922 155.224C80.7922 155.224 73.4826 131.413 72.2646 122.866Z" fill="#593B34"/>
<path d="M87.4933 122.256C86.884 113.098 99.0663 113.708 99.0664 122.256C99.0665 130.803 98.4574 145.455 98.4574 145.455L97.8483 155.224L89.9289 155.224C89.9289 155.224 88.1026 131.413 87.4933 122.256Z" fill="#593B34"/>
<path d="M101.397 123.476C100.787 113.708 114.903 112.487 113.579 123.476C112.254 134.466 108.097 155.224 108.097 155.224L100.787 155.224C100.787 155.224 102.006 133.245 101.397 123.476Z" fill="#593B34"/>
<path d="M116.731 120.424C118.558 110.045 130.741 113.098 128.304 120.424C125.867 127.749 116.122 153.086 116.122 153.086L110.64 153.086C110.64 153.086 114.904 130.802 116.731 120.424Z" fill="#593B34"/>
<path d="M123.43 150.95C125.257 147.287 137.44 124.087 137.44 124.087L141.704 126.529C137.441 134.466 130.131 150.95 128.303 154.003C126.475 157.055 121.603 154.613 123.43 150.95Z" fill="#593B34" stroke="#593B34"/>
<g filter="url(#filter3_f_531_350)">
<ellipse cx="65.3827" cy="97.6514" rx="1.03549" ry="1.03789" fill="#593B34"/>
</g>
<g filter="url(#filter4_f_531_350)">
<ellipse cx="93.4017" cy="103.757" rx="1.03549" ry="1.03789" fill="#593B34"/>
</g>
<g filter="url(#filter5_f_531_350)">
<ellipse cx="69.0377" cy="79.3361" rx="1.03549" ry="1.03789" fill="#593B34"/>
</g>
<g filter="url(#filter6_f_531_350)">
<ellipse cx="87.3106" cy="73.2308" rx="1.03549" ry="1.03789" fill="#593B34"/>
</g>
<g filter="url(#filter7_f_531_350)">
<ellipse cx="126.294" cy="96.4306" rx="1.03549" ry="1.03789" fill="#593B34"/>
</g>
<g filter="url(#filter8_f_531_350)">
<ellipse cx="62.9459" cy="104.978" rx="1.03549" ry="1.03789" fill="#593B34"/>
</g>
<g filter="url(#filter9_f_531_350)">
<ellipse cx="98.2752" cy="109.862" rx="1.03549" ry="1.03789" fill="#593B34"/>
</g>
<g filter="url(#filter10_f_531_350)">
<ellipse cx="71.4737" cy="82.9989" rx="1.03549" ry="1.03789" fill="#593B34"/>
</g>
<g filter="url(#filter11_f_531_350)">
<ellipse cx="92.1834" cy="73.2308" rx="1.03549" ry="1.03789" fill="#593B34"/>
</g>
<g filter="url(#filter12_f_531_350)">
<ellipse cx="128.73" cy="100.094" rx="1.03549" ry="1.03789" fill="#593B34"/>
</g>
<g filter="url(#filter13_f_531_350)">
<ellipse cx="70.2555" cy="101.315" rx="1.03549" ry="1.03789" fill="#593B34"/>
</g>
<g filter="url(#filter14_f_531_350)">
<ellipse cx="99.493" cy="103.757" rx="1.03549" ry="1.03789" fill="#593B34"/>
</g>
<g filter="url(#filter15_f_531_350)">
<ellipse cx="73.9105" cy="78.1149" rx="1.03549" ry="1.03789" fill="#593B34"/>
</g>
<g filter="url(#filter16_f_531_350)">
<ellipse cx="88.5289" cy="69.5676" rx="1.03549" ry="1.03789" fill="#593B34"/>
</g>
<g filter="url(#filter17_f_531_350)">
<ellipse cx="129.949" cy="95.2094" rx="1.03549" ry="1.03789" fill="#593B34"/>
</g>
<path d="M11.0743 131.807C9.8065 132.171 8.73553 132.097 7.86142 131.584C6.99082 131.071 6.36589 130.151 5.98663 128.824L5.37109 126.67L13.0516 124.465L13.7319 126.845C14.082 128.07 14.0252 129.117 13.5614 129.988C13.0976 130.858 12.2686 131.464 11.0743 131.807ZM10.653 130.492C12.4918 129.964 13.1648 128.838 12.6722 127.115L12.3606 126.025L6.78673 127.625L7.04257 128.52C7.57233 130.374 8.77582 131.031 10.653 130.492Z" fill="#593B34"/>
<path d="M14.9722 141.768C13.7688 142.263 12.7097 142.345 11.7949 142.014C10.8814 141.687 10.1987 140.971 9.74665 139.867C9.28909 138.748 9.26762 137.753 9.68222 136.88C10.1016 136.009 10.9214 135.322 12.1416 134.821C13.3618 134.319 14.4219 134.235 15.3218 134.567C16.2232 134.903 16.9027 135.631 17.3602 136.749C17.8109 137.85 17.8272 138.838 17.4092 139.712C16.9913 140.587 16.1789 141.272 14.9722 141.768ZM12.6581 136.112C11.748 136.486 11.1324 136.955 10.8111 137.517C10.4933 138.078 10.4823 138.72 10.7781 139.443C11.0725 140.162 11.527 140.609 12.1414 140.783C12.7573 140.96 13.5253 140.859 14.4455 140.481C15.3522 140.108 15.9652 139.643 16.2845 139.085C16.6051 138.531 16.6182 137.894 16.3237 137.175C16.0265 136.448 15.5676 135.996 14.947 135.817C14.3278 135.641 13.5649 135.74 12.6581 136.112Z" fill="#593B34"/>
<path d="M20.9274 146.642C20.5705 145.98 20.0559 145.586 19.3836 145.461C18.7112 145.335 17.9632 145.496 17.1396 145.942C16.2774 146.409 15.7231 146.944 15.4766 147.547C15.2318 148.152 15.2957 148.801 15.6682 149.491C15.8293 149.79 16.014 150.064 16.2225 150.312C16.4341 150.558 16.6678 150.807 16.9236 151.059L15.9381 151.593C15.4318 151.153 14.9898 150.583 14.6121 149.883C14.056 148.852 13.9398 147.892 14.2636 147.002C14.5906 146.111 15.3341 145.351 16.4943 144.723C17.225 144.327 17.9363 144.114 18.6281 144.083C19.3217 144.056 19.9512 144.217 20.5165 144.567C21.0819 144.916 21.5491 145.433 21.9181 146.117C22.3062 146.837 22.5142 147.584 22.5421 148.357L21.3619 148.461C21.3459 148.163 21.3076 147.857 21.2472 147.546C21.1916 147.235 21.0851 146.934 20.9274 146.642Z" fill="#593B34"/>
<path d="M20.5815 159.17L18.065 155.408L24.7014 150.949L27.2178 154.711L26.3009 155.327L24.5117 152.652L22.7051 153.866L24.3817 156.373L23.4739 156.983L21.7972 154.476L19.7138 155.876L21.503 158.551L20.5815 159.17Z" fill="#593B34"/>
<path d="M27.8932 164.959C27.3415 165.408 26.7469 165.56 26.1092 165.416C25.4715 165.271 24.868 164.847 24.2986 164.144C23.7293 163.441 23.3722 162.777 23.2272 162.152L24.1862 161.372C24.2828 161.763 24.4215 162.149 24.6023 162.529C24.7853 162.911 24.9882 163.24 25.2109 163.515C25.5368 163.918 25.8531 164.152 26.1597 164.218C26.4686 164.286 26.7517 164.216 27.0091 164.006C27.2411 163.818 27.3665 163.57 27.3854 163.263C27.4044 162.956 27.3015 162.438 27.0767 161.708C26.8467 160.955 26.7847 160.342 26.8906 159.87C26.9966 159.398 27.2561 158.995 27.6691 158.659C28.1868 158.238 28.7433 158.09 29.3388 158.217C29.9343 158.344 30.4834 158.718 30.9862 159.339C31.4683 159.935 31.818 160.633 32.0352 161.435L30.9461 161.785C30.7304 161.043 30.4469 160.455 30.0956 160.021C29.8293 159.693 29.5552 159.502 29.2732 159.449C28.994 159.394 28.737 159.462 28.5022 159.653C28.3409 159.784 28.2299 159.931 28.169 160.093C28.1109 160.253 28.0941 160.453 28.1186 160.691C28.143 160.93 28.2359 161.32 28.3973 161.861C28.5774 162.472 28.6714 162.95 28.6796 163.297C28.6877 163.643 28.6286 163.949 28.5025 164.217C28.3763 164.484 28.1732 164.731 27.8932 164.959Z" fill="#593B34"/>
<path d="M39.2144 170.575C39.0627 170.747 38.9646 170.95 38.92 171.183C38.8782 171.419 38.8635 171.695 38.8759 172.013C39.3389 172.11 39.6982 172.138 39.9537 172.096C40.2143 172.053 40.4276 171.937 40.5937 171.748C40.7502 171.57 40.8152 171.374 40.7888 171.161C40.7651 170.951 40.6548 170.759 40.4579 170.585C40.2419 170.394 40.0203 170.298 39.7931 170.297C39.571 170.296 39.3781 170.388 39.2144 170.575ZM36.3408 175.081C36.8412 175.523 37.398 175.754 38.011 175.774L37.8015 172.838C37.3479 172.769 36.9942 172.768 36.7404 172.836C36.489 172.901 36.2718 173.038 36.0889 173.246C35.8529 173.515 35.7547 173.817 35.7941 174.154C35.8387 174.49 36.0209 174.799 36.3408 175.081ZM35.0139 172.414C35.3292 172.055 35.6912 171.82 36.0997 171.709C36.5106 171.594 37.06 171.607 37.7478 171.747C37.7552 171.214 37.8026 170.801 37.8898 170.508C37.9822 170.215 38.1271 169.956 38.3245 169.731C38.6905 169.315 39.127 169.116 39.6342 169.135C40.1441 169.157 40.6492 169.389 41.1496 169.83C41.6336 170.258 41.9102 170.711 41.9793 171.19C42.0509 171.667 41.9121 172.104 41.563 172.501C41.2886 172.814 40.9465 173.015 40.5366 173.106C40.1295 173.199 39.598 173.183 38.9421 173.057L39.1551 175.682C39.6342 175.584 40.1968 175.317 40.8428 174.88L41.8354 175.756C40.9602 176.365 40.0967 176.729 39.2446 176.848L39.4284 179.134L38.1856 178.037L38.0981 176.902C37.6218 176.881 37.1744 176.788 36.7561 176.623C36.343 176.458 35.945 176.206 35.5622 175.868C34.9332 175.313 34.5709 174.728 34.4751 174.114C34.3793 173.499 34.5589 172.932 35.0139 172.414Z" fill="#593B34"/>
<path d="M51.8434 178.066L53.8642 179.31C54.8016 179.888 55.3944 180.441 55.6426 180.971C55.8938 181.503 55.8383 182.064 55.4759 182.656C55.2318 183.054 54.9263 183.322 54.5593 183.46C54.1923 183.599 53.7954 183.584 53.3685 183.415L53.3399 183.462C53.7627 183.846 54.0038 184.241 54.0633 184.646C54.1278 185.05 54.0208 185.48 53.7424 185.934C53.3667 186.547 52.8578 186.896 52.2159 186.98C51.5789 187.064 50.8802 186.871 50.1197 186.403L47.6612 184.889L51.8434 178.066ZM51.2284 181.57L52.2993 182.23C52.765 182.516 53.1497 182.652 53.4535 182.638C53.7592 182.621 54.0208 182.435 54.2382 182.08C54.4346 181.759 54.4603 181.456 54.3152 181.169C54.1732 180.885 53.8508 180.588 53.3479 180.278L52.3841 179.685L51.2284 181.57ZM50.6735 182.475L49.349 184.636L50.5317 185.365C50.9973 185.651 51.4024 185.779 51.747 185.747C52.0967 185.713 52.3897 185.504 52.6262 185.118C52.8436 184.763 52.8837 184.426 52.7465 184.106C52.6092 183.785 52.2938 183.473 51.8003 183.169L50.6735 182.475Z" fill="#593B34"/>
<path d="M64.2736 189.207C63.7143 190.384 62.9852 191.158 62.0863 191.53C61.1906 191.903 60.205 191.833 59.1294 191.32C58.0408 190.8 57.3572 190.077 57.0788 189.152C56.8053 188.224 56.9521 187.164 57.5192 185.97C58.0864 184.777 58.8146 184 59.704 183.64C60.5967 183.282 61.5874 183.362 62.6761 183.882C63.7484 184.394 64.4229 185.114 64.6997 186.043C64.9765 186.972 64.8345 188.027 64.2736 189.207ZM58.7677 186.578C58.3447 187.469 58.2028 188.23 58.3419 188.863C58.4827 189.492 58.905 189.975 59.6089 190.311C60.3094 190.645 60.9454 190.67 61.5169 190.385C62.0916 190.101 62.5928 189.509 63.0205 188.609C63.4419 187.722 63.5839 186.965 63.4465 186.337C63.3123 185.711 62.8949 185.23 62.1944 184.896C61.4872 184.558 60.8438 184.532 60.2643 184.818C59.688 185.105 59.1891 185.692 58.7677 186.578Z" fill="#593B34"/>
<path d="M66.4153 194.266L69.0944 186.722L70.3248 187.161L68.0214 193.647L71.2083 194.784L70.8326 195.842L66.4153 194.266Z" fill="#593B34"/>
<path d="M82.8678 194.847C82.5595 196.114 82.003 197.021 81.1985 197.568C80.3975 198.116 79.4183 198.249 78.2609 197.966C77.0894 197.679 76.2733 197.111 75.8126 196.262C75.3563 195.41 75.2845 194.342 75.5972 193.058C75.9098 191.773 76.4649 190.864 77.2625 190.33C78.0636 189.797 79.0499 189.674 80.2214 189.96C81.3752 190.242 82.1821 190.81 82.6419 191.663C83.1017 192.516 83.1771 193.577 82.8678 194.847ZM76.943 193.398C76.7098 194.356 76.7257 195.13 76.9905 195.721C77.2562 196.309 77.7678 196.695 78.5252 196.88C79.2791 197.065 79.9067 196.959 80.4082 196.563C80.9132 196.168 81.2836 195.486 81.5194 194.517C81.7517 193.563 81.7368 192.793 81.4746 192.206C81.216 191.62 80.7097 191.235 79.9558 191.051C79.1949 190.865 78.5597 190.971 78.0503 191.369C77.5445 191.767 77.1754 192.444 76.943 193.398Z" fill="#593B34"/>
<path d="M90.852 197.838C90.7552 198.544 90.4247 199.062 89.8607 199.393C89.2967 199.725 88.5671 199.829 87.672 199.705C86.777 199.582 86.0635 199.341 85.5315 198.984L85.6999 197.758C86.0374 197.978 86.4016 198.164 86.7924 198.318C87.1868 198.472 87.5591 198.573 87.9092 198.621C88.4217 198.692 88.8123 198.646 89.0809 198.484C89.3531 198.323 89.5119 198.077 89.5571 197.748C89.5978 197.451 89.5204 197.185 89.325 196.947C89.1295 196.71 88.7011 196.402 88.0397 196.024C87.3581 195.631 86.8951 195.226 86.6509 194.809C86.4066 194.392 86.3207 193.92 86.3932 193.391C86.4841 192.729 86.7902 192.241 87.3116 191.926C87.8329 191.611 88.4888 191.508 89.2792 191.617C90.0371 191.721 90.7686 191.992 91.4736 192.428L90.9169 193.429C90.2538 193.036 89.6462 192.801 89.094 192.725C88.6753 192.667 88.345 192.715 88.1032 192.87C87.8618 193.021 87.7205 193.246 87.6792 193.547C87.6509 193.753 87.6699 193.936 87.7361 194.096C87.8029 194.253 87.9266 194.41 88.1072 194.568C88.2878 194.725 88.6215 194.947 89.1083 195.231C89.6561 195.554 90.051 195.839 90.2928 196.086C90.5347 196.333 90.7007 196.597 90.7907 196.879C90.8808 197.16 90.9012 197.48 90.852 197.838Z" fill="#593B34"/>
<path d="M106.851 194.774C106.873 195.61 106.617 196.258 106.083 196.718C105.548 197.178 104.777 197.421 103.768 197.448L102.938 197.47L103.017 200.465L101.711 200.5L101.499 192.495L103.799 192.434C104.797 192.407 105.549 192.591 106.055 192.987C106.565 193.383 106.83 193.978 106.851 194.774ZM102.908 196.37L103.602 196.351C104.272 196.333 104.761 196.203 105.068 195.961C105.375 195.719 105.522 195.35 105.509 194.854C105.496 194.394 105.347 194.054 105.061 193.836C104.774 193.617 104.334 193.515 103.741 193.531L102.834 193.555L102.908 196.37Z" fill="#593B34"/>
<path d="M115.917 199.384L111.431 199.933L110.462 191.984L114.948 191.435L115.082 192.533L111.892 192.924L112.156 195.088L115.145 194.722L115.277 195.809L112.288 196.175L112.593 198.671L115.782 198.28L115.917 199.384Z" fill="#593B34"/>
<path d="M120.703 194.101L121.589 193.906C122.183 193.775 122.59 193.569 122.808 193.289C123.026 193.009 123.088 192.652 122.992 192.217C122.895 191.775 122.681 191.489 122.351 191.36C122.02 191.231 121.565 191.23 120.985 191.358L120.142 191.544L120.703 194.101ZM120.936 195.16L121.622 198.285L120.346 198.566L118.629 190.745L120.833 190.259C121.84 190.037 122.627 190.061 123.194 190.333C123.761 190.604 124.128 191.121 124.296 191.884C124.509 192.858 124.156 193.663 123.237 194.3L126.201 197.275L124.749 197.595L122.195 194.883L120.936 195.16Z" fill="#593B34"/>
<path d="M133.504 192.684C133.722 193.362 133.648 193.973 133.283 194.517C132.918 195.06 132.306 195.471 131.446 195.748C130.586 196.026 129.839 196.119 129.205 196.029L128.826 194.85C129.225 194.902 129.634 194.912 130.053 194.88C130.475 194.848 130.854 194.777 131.191 194.668C131.683 194.509 132.015 194.299 132.187 194.036C132.363 193.772 132.4 193.482 132.298 193.166C132.206 192.881 132.021 192.674 131.743 192.545C131.464 192.416 130.945 192.325 130.185 192.271C129.401 192.213 128.809 192.05 128.408 191.78C128.008 191.51 127.726 191.122 127.563 190.614C127.358 189.978 127.423 189.405 127.757 188.895C128.09 188.384 128.637 188.006 129.396 187.761C130.124 187.526 130.9 187.452 131.725 187.539L131.656 188.683C130.888 188.616 130.239 188.669 129.708 188.84C129.306 188.97 129.029 189.157 128.878 189.401C128.726 189.642 128.696 189.907 128.789 190.196C128.853 190.394 128.949 190.551 129.078 190.666C129.206 190.778 129.385 190.866 129.616 190.93C129.847 190.993 130.243 191.048 130.805 191.093C131.438 191.145 131.917 191.23 132.242 191.348C132.567 191.466 132.831 191.632 133.034 191.846C133.237 192.061 133.393 192.34 133.504 192.684Z" fill="#593B34"/>
<path d="M143.199 186.605C143.723 187.799 143.831 188.858 143.524 189.783C143.221 190.706 142.524 191.408 141.433 191.889C140.329 192.375 139.337 192.422 138.456 192.028C137.577 191.629 136.872 190.825 136.341 189.615C135.81 188.405 135.7 187.345 136.009 186.435C136.321 185.523 137.03 184.824 138.134 184.338C139.221 183.859 140.206 183.818 141.088 184.215C141.971 184.612 142.674 185.409 143.199 186.605ZM137.616 189.065C138.012 189.968 138.494 190.573 139.063 190.881C139.63 191.185 140.271 191.18 140.985 190.866C141.695 190.553 142.129 190.086 142.287 189.466C142.448 188.845 142.329 188.078 141.929 187.165C141.534 186.266 141.055 185.663 140.491 185.357C139.93 185.05 139.295 185.053 138.584 185.366C137.867 185.682 137.427 186.153 137.264 186.779C137.104 187.404 137.222 188.166 137.616 189.065Z" fill="#593B34"/>
<path d="M154.222 184.92L152.839 185.729L146.237 182.202L146.199 182.224L146.402 182.517C146.787 183.078 147.122 183.602 147.404 184.087L149.497 187.683L148.473 188.282L144.447 181.365L145.816 180.565L152.392 184.069L152.42 184.052C152.372 183.983 152.206 183.727 151.922 183.284C151.637 182.838 151.42 182.487 151.272 182.232L149.162 178.608L150.196 178.003L154.222 184.92Z" fill="#593B34"/>
<path d="M161.966 179.357L160.009 178.04L157.548 179.855L158.234 182.11L157.125 182.929L154.777 174.677L155.921 173.832L163.084 178.532L161.966 179.357ZM159.064 177.336L157.172 176.025C157.041 175.94 156.844 175.8 156.579 175.605C156.317 175.409 156.128 175.263 156.012 175.167C156.199 175.587 156.373 176.068 156.536 176.61L157.189 178.719L159.064 177.336Z" fill="#593B34"/>
<path d="M165.63 176.272L160.305 170.302L161.279 169.43L165.857 174.563L168.379 172.303L169.126 173.14L165.63 176.272Z" fill="#593B34"/>
<path d="M172.112 170.082L166.33 164.557L167.231 163.609L173.013 169.135L172.112 170.082Z" fill="#593B34"/>
<path d="M179.825 161.105L176.223 165.554L175.518 164.981L173.427 158.081L170.958 161.13L170.088 160.423L173.552 156.144L174.265 156.724L176.338 163.63L178.955 160.398L179.825 161.105Z" fill="#593B34"/>
<path d="M184.873 153.688L182.584 153.123L180.893 155.673L182.307 157.556L181.545 158.706L176.52 151.759L177.306 150.573L185.642 152.53L184.873 153.688ZM181.456 152.786L179.23 152.203C179.078 152.168 178.845 152.105 178.53 152.013C178.216 151.918 177.989 151.845 177.847 151.795C178.166 152.126 178.494 152.518 178.832 152.971L180.167 154.729L181.456 152.786Z" fill="#593B34"/>
<path d="M186.71 141.847C187.877 142.462 188.6 143.258 188.878 144.234C189.153 145.208 188.97 146.306 188.329 147.528L187.288 149.51L180.217 145.783L181.367 143.592C181.959 142.464 182.722 141.746 183.658 141.439C184.593 141.131 185.61 141.267 186.71 141.847ZM186.107 143.089C184.414 142.197 183.152 142.544 182.319 144.131L181.793 145.134L186.924 147.839L187.357 147.015C188.252 145.309 187.836 144 186.107 143.089Z" fill="#593B34"/>
<path d="M190.762 131.948C191.973 132.425 192.795 133.099 193.228 133.972C193.663 134.841 193.662 135.831 193.227 136.943C192.787 138.068 192.115 138.802 191.214 139.146C190.31 139.485 189.245 139.413 188.017 138.93C186.789 138.447 185.965 137.773 185.544 136.91C185.124 136.042 185.135 135.046 185.575 133.921C186.009 132.813 186.679 132.088 187.584 131.745C188.489 131.403 189.548 131.471 190.762 131.948ZM188.534 137.639C189.45 137.999 190.218 138.087 190.837 137.903C191.454 137.718 191.905 137.262 192.189 136.535C192.473 135.81 192.452 135.173 192.128 134.622C191.805 134.067 191.181 133.608 190.255 133.243C189.343 132.885 188.579 132.796 187.964 132.978C187.35 133.156 186.901 133.607 186.618 134.331C186.332 135.062 186.351 135.707 186.676 136.266C187.003 136.822 187.622 137.28 188.534 137.639Z" fill="#593B34"/>
<path d="M194.791 124.419C195.475 124.61 195.943 125.008 196.195 125.613C196.447 126.217 196.452 126.956 196.21 127.829C195.967 128.701 195.634 129.377 195.209 129.858L194.02 129.526C194.282 129.22 194.516 128.884 194.72 128.516C194.925 128.145 195.075 127.789 195.17 127.447C195.308 126.948 195.316 126.554 195.191 126.265C195.068 125.973 194.847 125.783 194.528 125.694C194.24 125.613 193.966 125.654 193.705 125.817C193.444 125.979 193.083 126.363 192.619 126.969C192.14 127.594 191.677 127.999 191.232 128.186C190.787 128.372 190.308 128.394 189.796 128.251C189.154 128.072 188.712 127.703 188.47 127.142C188.229 126.582 188.215 125.917 188.429 125.147C188.634 124.408 188.999 123.718 189.525 123.076L190.441 123.763C189.962 124.369 189.648 124.941 189.499 125.479C189.386 125.887 189.389 126.222 189.51 126.483C189.627 126.743 189.831 126.914 190.122 126.995C190.322 127.051 190.506 127.056 190.673 127.012C190.837 126.967 191.009 126.865 191.189 126.707C191.369 126.549 191.632 126.247 191.979 125.801C192.372 125.301 192.706 124.947 192.983 124.74C193.26 124.533 193.543 124.403 193.834 124.352C194.124 124.3 194.443 124.323 194.791 124.419Z" fill="#593B34"/>
<path d="M12.7863 79.8906L4.91919 80.0054L4.9027 80.0622C6.39509 80.4109 7.38685 80.6568 7.87797 80.8001L12.1596 82.049L11.652 83.7971L2.44653 81.1119L3.21982 78.4487L10.8933 78.3185L10.9043 78.2806L4.53734 73.911L5.31063 71.2478L14.5161 73.933L13.9865 75.7569L9.62935 74.4859C9.42367 74.4259 9.18711 74.3546 8.91968 74.272C8.65347 74.1853 7.94842 73.9477 6.80453 73.5592L6.78804 73.616L13.3067 78.0983L12.7863 79.8906Z" fill="#593B34"/>
<path d="M24.8137 51.8361L22.5142 51.1995L20.6423 54.1581L22.1973 55.9715L21.0243 57.8254L14.7066 49.7937L16.0377 47.69L25.9867 49.9821L24.8137 51.8361ZM20.8144 50.695C18.7239 50.129 17.542 49.8084 17.2686 49.7332C16.9975 49.6543 16.7862 49.5875 16.6345 49.5326C17.0299 49.9551 17.9771 51.0475 19.4763 52.8099L20.8144 50.695Z" fill="#593B34"/>
<path d="M34.6649 39.0843L27.7948 32.3815L29.2128 30.9214L36.0828 37.6242L34.6649 39.0843Z" fill="#593B34"/>
<path d="M49.1856 23.2322C49.6754 23.9475 49.8036 24.6884 49.5702 25.4549C49.3404 26.2189 48.7677 26.9158 47.8522 27.5456C47.0087 28.1258 46.1537 28.4801 45.2872 28.6086L44.2185 27.0478C44.9152 26.9193 45.4808 26.7773 45.9153 26.6219C46.3533 26.4641 46.7256 26.2798 47.0319 26.069C47.3996 25.8161 47.6325 25.5522 47.7307 25.2774C47.8324 25.0001 47.7881 24.7224 47.5976 24.4442C47.4912 24.2889 47.3539 24.1813 47.1858 24.1216C47.0152 24.0583 46.8068 24.0289 46.5607 24.0334C46.3182 24.0355 45.8551 24.091 45.1714 24.1999C44.5326 24.3046 44.0207 24.3352 43.6357 24.2918C43.2507 24.2484 42.8909 24.1372 42.5562 23.9582C42.2215 23.7792 41.9268 23.5036 41.6719 23.1315C41.192 22.4306 41.0508 21.7172 41.2484 20.9914C41.4496 20.263 41.9683 19.6112 42.8045 19.036C43.2155 18.7533 43.6399 18.533 44.078 18.3752C44.5197 18.2148 45.0048 18.0831 45.5333 17.9799L45.887 19.6579C45.3465 19.7746 44.914 19.8941 44.5894 20.0164C44.2685 20.1362 43.9746 20.2878 43.7079 20.4713C43.3907 20.6895 43.1981 20.931 43.1301 21.1956C43.0622 21.4603 43.1098 21.7119 43.2731 21.9503C43.3745 22.0984 43.4978 22.2049 43.643 22.2698C43.7857 22.3311 43.9668 22.3633 44.1863 22.3664C44.407 22.3634 44.8882 22.3034 45.63 22.1864C46.6113 22.0321 47.3615 22.0396 47.8803 22.2088C48.3967 22.3744 48.8318 22.7156 49.1856 23.2322Z" fill="#593B34"/>
<path d="M84.9202 6.61118C85.2151 8.16518 84.9986 9.43978 84.2708 10.435C83.5472 11.4293 82.3522 12.0854 80.6858 12.4031L78.0187 12.9116L76.2272 3.47129L79.1842 2.90753C80.7217 2.61439 81.9929 2.79355 82.9976 3.44502C84.0024 4.09649 84.6433 5.15187 84.9202 6.61118ZM82.8556 7.05833C82.4708 5.0308 81.3851 4.18735 79.5985 4.52798L78.5355 4.73064L79.7021 10.8778L80.5589 10.7144C82.483 10.3476 83.2486 9.1289 82.8556 7.05833Z" fill="#593B34"/>
<path d="M110.759 5.83644C110.624 7.42139 110.129 8.60626 109.273 9.39104C108.417 10.1758 107.257 10.506 105.793 10.3816C104.33 10.2572 103.242 9.73601 102.53 8.81795C101.818 7.8999 101.529 6.64403 101.664 5.05035C101.799 3.45667 102.294 2.27399 103.149 1.50231C104.008 0.726628 105.172 0.401169 106.64 0.525929C108.108 0.65069 109.194 1.16954 109.898 2.08249C110.606 2.99581 110.893 4.24713 110.759 5.83644ZM103.786 5.24393C103.696 6.31366 103.83 7.13644 104.19 7.71229C104.549 8.28813 105.132 8.6103 105.938 8.67879C107.554 8.81613 108.453 7.80853 108.635 5.65597C108.817 3.49904 108.105 2.35227 106.497 2.21567C105.692 2.14718 105.061 2.36842 104.605 2.87941C104.15 3.38602 103.877 4.17419 103.786 5.24393Z" fill="#593B34"/>
<path d="M133.371 7.59915C132.652 7.33783 131.997 7.40739 131.406 7.80783C130.816 8.20415 130.346 8.88636 129.996 9.85447C129.267 11.869 129.657 13.1502 131.166 13.6983C131.799 13.9282 132.623 14.0481 133.637 14.0579L133.056 15.6646C132.205 15.7048 131.323 15.5591 130.41 15.2276C129.099 14.7513 128.24 13.9894 127.833 12.9419C127.428 11.8903 127.494 10.6189 128.034 9.12759C128.373 8.18831 128.841 7.42842 129.437 6.8479C130.034 6.26327 130.719 5.89923 131.492 5.7558C132.27 5.60975 133.089 5.69276 133.948 6.00485C134.823 6.32292 135.626 6.85464 136.357 7.60001L135.177 8.93324C134.898 8.65013 134.61 8.38687 134.312 8.14346C134.014 7.90005 133.7 7.71861 133.371 7.59915ZM131.025 17.0588C130.834 17.5861 130.54 17.9104 130.143 18.0317C129.75 18.1546 129.228 18.098 128.579 17.8621C128.258 17.7456 127.974 17.5933 127.726 17.4053L128.101 16.3671C128.202 16.4363 128.339 16.5189 128.514 16.6149C128.692 16.7124 128.833 16.7799 128.936 16.8172C129.232 16.9247 129.426 16.8508 129.518 16.5954C129.642 16.2534 129.381 15.907 128.736 15.5562L129.561 14.7792L130.751 15.2115L130.448 15.528C130.717 15.7374 130.904 15.9779 131.01 16.2496C131.115 16.5254 131.12 16.7951 131.025 17.0588Z" fill="#593B34"/>
<path d="M158.983 19.1115L155.472 24.2381C155.072 24.8234 154.589 25.2459 154.024 25.5057C153.462 25.7679 152.854 25.8466 152.2 25.7417C151.545 25.6368 150.881 25.3525 150.207 24.8888C149.19 24.1896 148.579 23.3864 148.373 22.4793C148.17 21.5686 148.378 20.6599 148.999 19.7531L152.495 14.6481L154.166 15.7975L150.844 20.6477C150.426 21.2582 150.242 21.7905 150.292 22.2446C150.341 22.6986 150.649 23.1203 151.215 23.5096C151.763 23.8865 152.257 24.0165 152.698 23.8997C153.144 23.7818 153.578 23.4158 153.998 22.8016L157.312 17.9622L158.983 19.1115Z" fill="#593B34"/>
<path d="M171.144 35.3805L171.574 35.8766C171.995 36.3627 172.387 36.6511 172.75 36.7418C173.112 36.8324 173.467 36.7269 173.813 36.425C174.156 36.1261 174.297 35.7943 174.236 35.4297C174.178 35.0684 173.933 34.6397 173.503 34.1436L173.099 33.6773L171.144 35.3805ZM169.896 36.4671L167.12 38.8861L165.786 37.3482L173.022 31.0442L174.855 33.1575C175.71 34.1431 176.162 35.029 176.213 35.8152C176.266 36.5986 175.929 37.308 175.199 37.9433C174.774 38.3141 174.292 38.5273 173.756 38.5828C173.222 38.6354 172.675 38.5287 172.114 38.2626C171.434 40.7712 170.999 42.3978 170.811 43.1425L169.331 41.436L170.606 37.2856L169.896 36.4671Z" fill="#593B34"/>
<path d="M181.863 60.1976L183.581 58.5385L181.994 55.4169L179.645 55.8344L178.651 53.8783L188.765 52.5203L189.893 54.74L182.857 62.1537L181.863 60.1976ZM184.88 57.3294C186.431 55.8146 187.308 54.9584 187.512 54.7609C187.717 54.5673 187.883 54.4191 188.007 54.3162C187.443 54.442 186.022 54.7026 183.746 55.098L184.88 57.3294Z" fill="#593B34"/>
<path d="M191.821 80.1598C190.979 80.3628 190.243 80.2182 189.612 79.7258C188.982 79.2378 188.538 78.4527 188.278 77.3706C188.038 76.3737 188.014 75.4467 188.203 74.5896L190.04 74.1467C189.91 74.8449 189.841 75.4251 189.83 75.8873C189.821 76.3538 189.86 76.7681 189.947 77.1302C190.051 77.5648 190.214 77.8771 190.435 78.0671C190.657 78.2614 190.931 78.3191 191.259 78.2402C191.441 78.1961 191.591 78.106 191.706 77.9699C191.826 77.8328 191.928 77.6482 192.012 77.4162C192.097 77.1884 192.21 76.7351 192.353 76.0561C192.484 75.4207 192.638 74.9305 192.816 74.5856C192.994 74.2406 193.226 73.9435 193.513 73.6941C193.799 73.4448 194.161 73.2673 194.599 73.1616C195.423 72.9627 196.139 73.0854 196.744 73.5296C197.351 73.9782 197.773 74.6966 198.011 75.685C198.127 76.1707 198.181 76.6467 198.172 77.1132C198.163 77.584 198.113 78.0852 198.02 78.6168L196.33 78.3485C196.414 77.8008 196.457 77.3532 196.459 77.0057C196.462 76.6625 196.426 76.3332 196.35 76.0179C196.26 75.643 196.104 75.3765 195.882 75.2183C195.659 75.0601 195.408 75.0149 195.127 75.0825C194.953 75.1246 194.81 75.202 194.698 75.3147C194.59 75.4264 194.495 75.5845 194.414 75.7889C194.337 75.9965 194.221 76.4685 194.066 77.2047C193.859 78.1785 193.584 78.8781 193.241 79.3034C192.902 79.7277 192.429 80.0131 191.821 80.1598Z" fill="#593B34"/>
<defs>
<filter id="filter0_f_531_350" x="108.917" y="51.2877" width="11.6091" height="21.0446" filterUnits="userSpaceOnUse" color-interpolation-filters="sRGB">
<feFlood flood-opacity="0" result="BackgroundImageFix"/>
<feBlend mode="normal" in="SourceGraphic" in2="BackgroundImageFix" result="shape"/>
<feGaussianBlur stdDeviation="0.25" result="effect1_foregroundBlur_531_350"/>
</filter>
<filter id="filter1_f_531_350" x="1.57793" y="102.108" width="8.76016" height="4.90212" filterUnits="userSpaceOnUse" color-interpolation-filters="sRGB">
<feFlood flood-opacity="0" result="BackgroundImageFix"/>
<feBlend mode="normal" in="SourceGraphic" in2="BackgroundImageFix" result="shape"/>
<feGaussianBlur stdDeviation="0.15" result="effect1_foregroundBlur_531_350"/>
</filter>
<filter id="filter2_f_531_350" x="190.506" y="97.2664" width="4.98403" height="8.73635" filterUnits="userSpaceOnUse" color-interpolation-filters="sRGB">
<feFlood flood-opacity="0" result="BackgroundImageFix"/>
<feBlend mode="normal" in="SourceGraphic" in2="BackgroundImageFix" result="shape"/>
<feGaussianBlur stdDeviation="0.15" result="effect1_foregroundBlur_531_350"/>
</filter>
<filter id="filter3_f_531_350" x="63.8472" y="96.1135" width="3.07104" height="3.07581" filterUnits="userSpaceOnUse" color-interpolation-filters="sRGB">
<feFlood flood-opacity="0" result="BackgroundImageFix"/>
<feBlend mode="normal" in="SourceGraphic" in2="BackgroundImageFix" result="shape"/>
<feGaussianBlur stdDeviation="0.25" result="effect1_foregroundBlur_531_350"/>
</filter>
<filter id="filter4_f_531_350" x="91.8662" y="102.219" width="3.07104" height="3.07581" filterUnits="userSpaceOnUse" color-interpolation-filters="sRGB">
<feFlood flood-opacity="0" result="BackgroundImageFix"/>
<feBlend mode="normal" in="SourceGraphic" in2="BackgroundImageFix" result="shape"/>
<feGaussianBlur stdDeviation="0.25" result="effect1_foregroundBlur_531_350"/>
</filter>
<filter id="filter5_f_531_350" x="67.5022" y="77.7982" width="3.07104" height="3.07581" filterUnits="userSpaceOnUse" color-interpolation-filters="sRGB">
<feFlood flood-opacity="0" result="BackgroundImageFix"/>
<feBlend mode="normal" in="SourceGraphic" in2="BackgroundImageFix" result="shape"/>
<feGaussianBlur stdDeviation="0.25" result="effect1_foregroundBlur_531_350"/>
</filter>
<filter id="filter6_f_531_350" x="85.7751" y="71.6929" width="3.07104" height="3.07581" filterUnits="userSpaceOnUse" color-interpolation-filters="sRGB">
<feFlood flood-opacity="0" result="BackgroundImageFix"/>
<feBlend mode="normal" in="SourceGraphic" in2="BackgroundImageFix" result="shape"/>
<feGaussianBlur stdDeviation="0.25" result="effect1_foregroundBlur_531_350"/>
</filter>
<filter id="filter7_f_531_350" x="124.759" y="94.8927" width="3.07104" height="3.07581" filterUnits="userSpaceOnUse" color-interpolation-filters="sRGB">
<feFlood flood-opacity="0" result="BackgroundImageFix"/>
<feBlend mode="normal" in="SourceGraphic" in2="BackgroundImageFix" result="shape"/>
<feGaussianBlur stdDeviation="0.25" result="effect1_foregroundBlur_531_350"/>
</filter>
<filter id="filter8_f_531_350" x="61.4104" y="103.44" width="3.07104" height="3.07581" filterUnits="userSpaceOnUse" color-interpolation-filters="sRGB">
<feFlood flood-opacity="0" result="BackgroundImageFix"/>
<feBlend mode="normal" in="SourceGraphic" in2="BackgroundImageFix" result="shape"/>
<feGaussianBlur stdDeviation="0.25" result="effect1_foregroundBlur_531_350"/>
</filter>
<filter id="filter9_f_531_350" x="96.7397" y="108.324" width="3.07104" height="3.07581" filterUnits="userSpaceOnUse" color-interpolation-filters="sRGB">
<feFlood flood-opacity="0" result="BackgroundImageFix"/>
<feBlend mode="normal" in="SourceGraphic" in2="BackgroundImageFix" result="shape"/>
<feGaussianBlur stdDeviation="0.25" result="effect1_foregroundBlur_531_350"/>
</filter>
<filter id="filter10_f_531_350" x="69.9382" y="81.4611" width="3.07104" height="3.07581" filterUnits="userSpaceOnUse" color-interpolation-filters="sRGB">
<feFlood flood-opacity="0" result="BackgroundImageFix"/>
<feBlend mode="normal" in="SourceGraphic" in2="BackgroundImageFix" result="shape"/>
<feGaussianBlur stdDeviation="0.25" result="effect1_foregroundBlur_531_350"/>
</filter>
<filter id="filter11_f_531_350" x="90.6479" y="71.6929" width="3.07104" height="3.07581" filterUnits="userSpaceOnUse" color-interpolation-filters="sRGB">
<feFlood flood-opacity="0" result="BackgroundImageFix"/>
<feBlend mode="normal" in="SourceGraphic" in2="BackgroundImageFix" result="shape"/>
<feGaussianBlur stdDeviation="0.25" result="effect1_foregroundBlur_531_350"/>
</filter>
<filter id="filter12_f_531_350" x="127.195" y="98.5557" width="3.07104" height="3.07581" filterUnits="userSpaceOnUse" color-interpolation-filters="sRGB">
<feFlood flood-opacity="0" result="BackgroundImageFix"/>
<feBlend mode="normal" in="SourceGraphic" in2="BackgroundImageFix" result="shape"/>
<feGaussianBlur stdDeviation="0.25" result="effect1_foregroundBlur_531_350"/>
</filter>
<filter id="filter13_f_531_350" x="68.72" y="99.7767" width="3.07104" height="3.07581" filterUnits="userSpaceOnUse" color-interpolation-filters="sRGB">
<feFlood flood-opacity="0" result="BackgroundImageFix"/>
<feBlend mode="normal" in="SourceGraphic" in2="BackgroundImageFix" result="shape"/>
<feGaussianBlur stdDeviation="0.25" result="effect1_foregroundBlur_531_350"/>
</filter>
<filter id="filter14_f_531_350" x="97.9575" y="102.219" width="3.07104" height="3.07581" filterUnits="userSpaceOnUse" color-interpolation-filters="sRGB">
<feFlood flood-opacity="0" result="BackgroundImageFix"/>
<feBlend mode="normal" in="SourceGraphic" in2="BackgroundImageFix" result="shape"/>
<feGaussianBlur stdDeviation="0.25" result="effect1_foregroundBlur_531_350"/>
</filter>
<filter id="filter15_f_531_350" x="72.375" y="76.577" width="3.07104" height="3.07581" filterUnits="userSpaceOnUse" color-interpolation-filters="sRGB">
<feFlood flood-opacity="0" result="BackgroundImageFix"/>
<feBlend mode="normal" in="SourceGraphic" in2="BackgroundImageFix" result="shape"/>
<feGaussianBlur stdDeviation="0.25" result="effect1_foregroundBlur_531_350"/>
</filter>
<filter id="filter16_f_531_350" x="86.9934" y="68.0297" width="3.07104" height="3.07581" filterUnits="userSpaceOnUse" color-interpolation-filters="sRGB">
<feFlood flood-opacity="0" result="BackgroundImageFix"/>
<feBlend mode="normal" in="SourceGraphic" in2="BackgroundImageFix" result="shape"/>
<feGaussianBlur stdDeviation="0.25" result="effect1_foregroundBlur_531_350"/>
</filter>
<filter id="filter17_f_531_350" x="128.413" y="93.6715" width="3.07104" height="3.07581" filterUnits="userSpaceOnUse" color-interpolation-filters="sRGB">
<feFlood flood-opacity="0" result="BackgroundImageFix"/>
<feBlend mode="normal" in="SourceGraphic" in2="BackgroundImageFix" result="shape"/>
<feGaussianBlur stdDeviation="0.25" result="effect1_foregroundBlur_531_350"/>
</filter>
</defs>
</svg>
